HIERARCHY
ROOT Hips
{
     OFFSET 17.13590 97.10920 25.49310
     CHANNELS 6 Xposition Yposition Zposition Zrotation Xrotation Yrotation
     JOINT Spine
     {
          OFFSET 0.00000 11.89050 -0.00000
          CHANNELS 3 Zrotation Xrotation Yrotation
          JOINT Spine1
          {
               OFFSET 0.00000 25.65740 0.12766
               CHANNELS 3 Zrotation Xrotation Yrotation
               JOINT HEad
               {
                    OFFSET 0.00000 8.73416 0.01134
                    CHANNELS 3 Zrotation Xrotation Yrotation
                    End Site
                    {
                         OFFSET -0.29000 12.77420 2.51395
                    }
               }
               JOINT LeftShoulder1
               {
                    OFFSET 8.99000 -0.36225 -0.22000
                    CHANNELS 3 Zrotation Xrotation Yrotation
                    JOINT LeftArm
                    {
                         OFFSET 10.28270 -0.00338 0.32212
                         CHANNELS 3 Zrotation Xrotation Yrotation
                         JOINT LeftForeArm
                         {
                              OFFSET 32.76690 0.09914 -1.42434
                              CHANNELS 3 Zrotation Xrotation Yrotation
                              JOINT LeftHand
                              {
                                   OFFSET 27.56430 0.08536 1.02216
                                   CHANNELS 3 Zrotation Xrotation Yrotation
                                   End Site
                                   {
                                        OFFSET 16.74430 -0.60000 1.50291
                                   }
                              }
                         }
                    }
               }
               JOINT RightShoulder
               {
                    OFFSET -8.99000 -0.36225 -0.22000
                    CHANNELS 3 Zrotation Xrotation Yrotation
                    JOINT RightArm
                    {
                         OFFSET -10.28270 -0.00338 0.32212
                         CHANNELS 3 Zrotation Xrotation Yrotation
                         JOINT RightForeArm
                         {
                              OFFSET -32.89710 0.09914 -1.42434
                              CHANNELS 3 Zrotation Xrotation Yrotation
                              JOINT RightHand
                              {
                                   OFFSET -27.49210 0.08536 1.02216
                                   CHANNELS 3 Zrotation Xrotation Yrotation
                                   End Site
                                   {
                                        OFFSET -16.63120 -0.60000 1.50291
                                   }
                              }
                         }
                    }
               }
          }
     }
     JOINT LeftUpLeg
     {
          OFFSET 8.94580 -8.66707 0.10165
          CHANNELS 3 Zrotation Xrotation Yrotation
          JOINT LeftLeg
          {
               OFFSET 0.00000 -44.42270 1.37270
               CHANNELS 3 Zrotation Xrotation Yrotation
               JOINT LeftFoot
               {
                    OFFSET -0.25355 -42.09240 -1.46059
                    CHANNELS 3 Zrotation Xrotation Yrotation
                    JOINT LeftToes
                    {
                         OFFSET -0.04000 -4.41509 8.49910
                         CHANNELS 3 Zrotation Xrotation Yrotation
                         End Site
                         {
                              OFFSET 0.08000 -0.04745 9.77979
                         }
                    }
               }
          }
     }
     JOINT RightUpLeg
     {
          OFFSET -8.94580 -8.66707 0.10165
          CHANNELS 3 Zrotation Xrotation Yrotation
          JOINT RightLeg
          {
               OFFSET 0.00000 -44.42270 1.37270
               CHANNELS 3 Zrotation Xrotation Yrotation
               JOINT RightFoot
               {
                    OFFSET 0.25355 -42.09240 -1.46059
                    CHANNELS 3 Zrotation Xrotation Yrotation
                    JOINT RightToes
                    {
                         OFFSET 0.04000 -4.41509 8.49910
                         CHANNELS 3 Zrotation Xrotation Yrotation
                         End Site
                         {
                              OFFSET -0.08000 -0.13745 9.77979
                         }
                    }
               }
          }
     }
}
MOTION
Frames: 17
Frame Time: 0.01667
20.83070 90.99300 108.12300 0.20495 -2.31839 126.35700 -0.87802 8.37265 2.40902 -2.05586 16.79910 4.76177 -6.48742 -6.59430 54.85770 -0.00000 -0.00000 0.00000 -134.44200 -65.08570 -124.51100 -26.47570 37.65260 -78.61150 5.55594 9.67997 -0.87718 9.13388 0.56007 1.60385 56.01860 -7.62884 87.60350 12.19260 26.46490 87.57580 -5.55712 9.68432 0.87760 17.02270 -28.23270 10.79750 9.30650 48.51830 7.22368 -20.11080 2.60526 1.78568 -2.76613 -43.63840 -21.29840 -15.28510 -5.94937 -5.45732 -11.94570 33.98400 27.97620 19.78080 -30.51260 3.85299 -2.93474 -3.31335 2.02836 
20.99460 90.91940 109.54100 0.47164 -1.95632 125.30700 -0.65856 8.56737 2.27487 -1.97664 17.21350 4.54314 -6.91704 -6.60578 55.38570 -0.00000 -0.00000 0.00000 -136.20900 -65.58440 -126.93700 -26.62920 37.74330 -78.15610 5.55594 9.67997 -0.87718 8.99863 0.55315 1.58064 55.91950 -7.86222 87.54980 12.28180 26.58810 87.57240 -5.55712 9.68432 0.87760 17.88820 -27.54020 10.80610 8.68010 48.08520 8.01474 -20.51360 1.68370 1.66290 -2.06419 -41.52180 -19.78170 -15.06330 -6.65692 -5.68521 -11.68870 34.94000 28.78990 18.61590 -32.22790 3.90306 -2.29521 -1.96388 2.91326 
21.25420 90.94060 110.77800 0.59469 -1.64233 124.60100 -0.32427 8.59991 2.09371 -1.78772 17.31040 4.22759 -7.32373 -6.04882 55.81120 -0.00000 -0.00000 0.00000 -136.19901 -66.18280 -127.41400 -26.60600 37.71410 -77.84870 5.55594 9.67997 -0.87718 9.13193 0.56515 1.64532 55.78660 -8.06980 87.15700 12.42580 26.85570 87.63180 -5.55712 9.68432 0.87760 18.81870 -26.81940 10.83830 7.49555 47.39530 8.83383 -21.06800 1.01026 1.58922 -1.52518 -39.50210 -18.68430 -14.78570 -6.98686 -5.58489 -11.28400 35.37210 28.78760 17.65410 -33.57930 3.90646 -1.81887 -0.95499 3.52307 
21.59450 91.04800 111.85100 0.52839 -1.34627 124.29100 0.13248 8.46599 1.86082 -1.57400 17.08640 3.82143 -7.71025 -5.07742 56.04740 -0.00000 -0.00000 0.00000 -134.86000 -66.79230 -126.48200 -26.42520 37.59600 -77.68390 5.55594 9.67997 -0.87718 9.53632 0.59223 1.76105 55.72820 -8.34809 86.41720 12.67750 27.39170 87.77000 -5.55712 9.68432 0.87760 19.52430 -26.16310 10.80710 6.30811 46.38750 9.35083 -21.76500 0.56736 1.56181 -1.08977 -37.54240 -17.87440 -14.49670 -7.04702 -5.50775 -10.91520 35.40570 28.22560 16.53680 -34.49700 3.77776 -1.53463 -0.38183 3.81617 
21.96950 91.21570 112.80600 0.28498 -1.01026 124.28300 0.56883 8.22426 1.62110 -1.41256 16.65010 3.39215 -8.15802 -3.98244 56.07050 -0.00000 -0.00000 0.00000 -133.11099 -67.27320 -125.08000 -26.19210 37.46090 -77.60510 5.55594 9.67997 -0.87718 10.10610 0.62746 1.89114 55.79860 -8.76094 85.47630 13.05240 28.21590 87.98400 -5.55712 9.68432 0.87760 19.77780 -25.60480 10.71850 5.63118 45.10500 9.37921 -22.57040 0.26817 1.56421 -0.70038 -35.53120 -17.18010 -14.21390 -7.10018 -5.60207 -10.92780 35.39340 27.68130 15.45210 -35.01240 3.57918 -1.38155 -0.15754 3.82449 
22.32320 91.42540 113.67900 -0.03971 -0.61083 124.42300 0.88376 7.97134 1.42140 -1.29578 16.18150 3.01820 -8.72101 -3.05645 55.92490 -0.00000 -0.00000 0.00000 -132.00200 -67.52660 -124.18700 -26.03450 37.37210 -77.53590 5.55594 9.67997 -0.87718 10.63900 0.66003 2.00123 56.00510 -9.30532 84.58430 13.51210 29.21690 88.24860 -5.55712 9.68432 0.87760 19.54070 -25.09190 10.61910 5.68768 43.63170 8.96683 -23.40830 0.06728 1.58432 -0.33544 -33.42540 -16.50060 -13.92610 -7.31933 -5.69627 -11.39320 35.62960 27.44690 14.89450 -35.23530 3.46710 -1.25246 -0.03938 3.70999 
22.62150 91.66570 114.48600 -0.31694 -0.15196 124.58400 1.07039 7.79181 1.28364 -1.16275 15.84270 2.74333 -9.37914 -2.44420 55.69210 -0.00000 -0.00000 0.00000 -132.13300 -67.53000 -124.31400 -26.00940 37.33910 -77.43150 5.55594 9.67997 -0.87718 10.93590 0.67921 2.06660 56.32580 -9.89649 83.96380 13.97750 30.20460 88.51570 -5.55712 9.68432 0.87760 18.94960 -24.51770 10.51210 6.31277 42.04510 8.36546 -24.16720 -0.01975 1.61967 -0.00514 -31.31570 -15.80250 -13.66040 -7.67368 -5.49461 -11.98410 36.19250 27.33100 15.07020 -35.22490 3.51125 -1.13998 0.11206 3.69325 
22.86860 91.92640 115.22200 -0.46802 0.34830 124.70400 1.18160 7.71443 1.20636 -0.96772 15.69270 2.57479 -10.06210 -2.10087 55.44890 -0.00000 -0.00000 0.00000 -133.39101 -67.30110 -125.31300 -26.08370 37.32940 -77.28650 5.55594 9.67997 -0.87718 10.90940 0.68047 2.08220 56.69810 -10.40010 83.70270 14.35280 30.97560 88.72850 -5.55712 9.68432 0.87760 18.24020 -23.79050 10.33450 7.04018 40.40730 7.92764 -24.74260 0.04979 1.67451 0.26683 -29.39860 -15.09420 -13.46500 -7.99937 -4.91686 -12.31850 36.92790 27.04350 15.70480 -35.01000 3.64399 -1.07796 0.29936 3.85930 
23.09320 92.19490 115.87600 -0.50609 0.86231 124.76100 1.27972 7.70442 1.18334 -0.72727 15.66960 2.51410 -10.70520 -1.85935 55.23550 -0.00000 -0.00000 0.00000 -135.15800 -66.87380 -126.60700 -26.19050 37.31920 -77.11320 5.55594 9.67997 -0.87718 10.62430 0.66820 2.06441 57.02380 -10.71490 83.73660 14.56710 31.39490 88.84090 -5.55712 9.68432 0.87760 17.63780 -22.89290 10.01400 7.39035 38.77690 7.93271 -25.10050 0.30817 1.75532 0.46302 -27.87380 -14.43200 -13.36050 -8.15581 -4.20283 -12.32070 37.56380 26.59560 16.30390 -34.69750 3.74996 -1.01820 0.52147 4.08720 
23.32510 92.45090 116.44000 -0.51082 1.35877 124.74600 1.39932 7.69507 1.21755 -0.50771 15.64810 2.57943 -11.27950 -1.53144 55.05470 -0.00000 -0.00000 0.00000 -136.74001 -66.30030 -127.59500 -26.29850 37.32730 -76.92950 5.55594 9.67997 -0.87718 10.26840 0.65211 2.03546 57.19330 -10.82680 83.91500 14.61270 31.45890 88.83650 -5.55712 9.68432 0.87760 17.27730 -21.89180 9.52378 7.10500 37.21670 8.47802 -25.27490 0.75547 1.86497 0.58354 -26.84620 -13.91560 -13.34330 -8.13051 -3.69133 -12.18320 37.91020 26.22910 16.42500 -34.40560 3.73517 -0.92529 0.72636 4.20394 
23.58040 92.67040 116.91500 -0.56033 1.80863 124.65800 1.54297 7.63175 1.31472 -0.36873 15.52300 2.78761 -11.78040 -0.99986 54.91250 -0.00000 -0.00000 0.00000 -137.71700 -65.65990 -127.94300 -26.42420 37.39430 -76.76900 5.55594 9.67997 -0.87718 10.04400 0.64000 2.00152 57.11090 -10.76240 84.10270 14.52770 31.25800 88.74250 -5.55712 9.68432 0.87760 17.20040 -20.89250 8.90382 6.18680 35.78260 9.46764 -25.32420 1.32545 1.99247 0.64921 -26.24050 -13.61250 -13.40020 -8.02132 -3.54588 -12.09070 37.97980 26.11230 15.89060 -34.17310 3.56538 -0.85148 0.79732 4.14388 
23.85520 92.83510 117.31700 -0.67779 2.19100 124.52000 1.69639 7.49804 1.46349 -0.30899 15.26070 3.10975 -12.19820 -0.27316 54.85370 -0.00000 -0.00000 0.00000 -138.04800 -65.06590 -127.66400 -26.58330 37.53100 -76.69030 5.55594 9.67997 -0.87718 10.01050 0.63379 1.96292 56.75270 -10.54090 84.24840 14.34970 30.88010 88.61320 -5.55712 9.68432 0.87760 17.37230 -19.98400 8.26352 4.86450 34.50750 10.62290 -25.34330 1.87672 2.11371 0.69493 -25.79210 -13.49130 -13.50170 -7.94481 -3.68931 -12.09350 37.94140 26.23280 14.92380 -34.01500 3.30206 -0.82905 0.71751 3.95771 
24.12990 92.94290 117.66200 -0.82500 2.49361 124.38500 1.85234 7.31716 1.62770 -0.26604 14.90510 3.46128 -12.50990 0.52392 54.92350 -0.00000 -0.00000 0.00000 -137.97800 -64.62760 -127.03000 -26.76950 37.71190 -76.74220 5.55594 9.67997 -0.87718 10.07550 0.63316 1.94179 56.20810 -10.22200 84.39070 14.11550 30.39780 88.49150 -5.55712 9.68432 0.87760 17.70220 -19.20700 7.73878 3.50117 33.39430 11.57840 -25.46320 2.27188 2.21034 0.75036 -25.23450 -13.47610 -13.59690 -7.95193 -3.93340 -12.15780 37.97050 26.46800 13.98270 -33.93670 3.05908 -0.86015 0.56029 3.77060 
24.38410 93.00580 117.96000 -0.93812 2.71747 124.31400 2.01413 7.13544 1.76435 -0.17186 14.54790 3.74854 -12.71720 1.21271 55.09990 -0.00000 -0.00000 0.00000 -137.83701 -64.38220 -126.40400 -26.97890 37.91130 -76.91930 5.55594 9.67997 -0.87718 10.14610 0.63781 1.95918 55.65050 -9.92792 84.59560 13.89480 29.94020 88.40490 -5.55712 9.68432 0.87760 18.07890 -18.55060 7.42038 2.41835 32.42250 12.08000 -25.74830 2.47563 2.28118 0.82086 -24.52650 -13.53870 -13.64550 -8.00983 -4.11576 -12.20300 38.14390 26.63440 13.38520 -33.84790 2.90091 -1.04818 0.27133 3.73973 
24.60790 93.04170 118.21200 -0.97698 2.88600 124.35600 2.18148 6.99377 1.84653 -0.00154 14.27060 3.91765 -12.86320 1.65586 55.30850 -0.00000 -0.00000 0.00000 -137.84000 -64.28510 -126.01500 -27.20620 38.11730 -77.17930 5.55594 9.67997 -0.87718 10.19590 0.64480 1.99912 55.25830 -9.75526 84.87640 13.76790 29.67100 88.38320 -5.55712 9.68432 0.87760 18.40390 -17.97500 7.31423 1.74767 31.54930 12.11020 -26.10620 2.55578 2.33232 0.89202 -23.82850 -13.67940 -13.65770 -8.04470 -4.16174 -12.11750 38.43680 26.54530 13.11800 -33.58500 2.80321 -1.56328 -0.34326 3.95362 
24.80400 93.06760 118.42400 -0.95144 3.03932 124.53500 2.34059 6.90312 1.86877 0.22567 14.09470 3.95998 -12.99020 1.84258 55.48760 -0.00000 -0.00000 0.00000 -137.98900 -64.26820 -125.86000 -27.41660 38.31060 -77.48270 5.55594 9.67997 -0.87718 10.21760 0.64987 2.03163 55.12030 -9.71012 85.17340 13.76450 29.66070 88.44050 -5.55712 9.68432 0.87760 18.60740 -17.45180 7.35189 1.42813 30.73180 11.81870 -26.34520 2.56616 2.35705 0.95505 -23.22640 -13.82050 -13.68250 -7.99818 -4.10045 -11.83730 38.77410 26.12730 12.95380 -33.06220 2.70035 -2.43862 -1.38190 4.33543 
24.98530 93.09510 118.60500 -0.90662 3.21001 124.85400 2.46555 6.84390 1.84063 0.47023 13.97920 3.89481 -13.10440 1.87866 55.60790 -0.00000 -0.00000 0.00000 -138.14101 -64.28280 -125.78100 -27.56370 38.46040 -77.79140 5.55594 9.67997 -0.87718 10.22690 0.65297 2.05243 55.19310 -9.74516 85.38920 13.85820 29.85150 88.55340 -5.55712 9.68432 0.87760 18.66280 -16.98700 7.42077 1.30095 29.95720 11.39870 -26.29670 2.49103 2.33555 1.01535 -22.62380 -13.81010 -13.75420 -7.85374 -4.02720 -11.41740 39.08000 25.47200 12.68710 -32.35500 2.55401 -3.49586 -2.70112 4.69139 
